# xmcd
#
# Track frame offsets: 
#        150
#        11112
#        18883
#        37507
#        49291
#        66957
#        84352
#        99428
#        112661
#        126472
#        142955
#        154937
#        167636
#        176876
#        186605
#        197567
#        214557
#        221869
#
# Disc length: 3117 seconds
#
# Revision: 0
# Processed by: cddbd v1.5.2PL0 Copyright (c) Steve Scherf et al.
# Submitted via: ExactAudioCopy v1.0b3
#
DISCID=f90c2b12
DTITLE=The Whiskey Brothers - Bottle Up And Go
DYEAR=2015
DGENRE=Blues
TTITLE0=Bottle Up And Go
TTITLE1=Key To The Highway
TTITLE2=Ain't Nobody's Business If I Do
TTITLE3=Tell God
TTITLE4=See See Rider
TTITLE5=Buzz Buzz
TTITLE6=Walkin' Blues
TTITLE7=I Feel Like A Millionaire
TTITLE8=You Got Me Runnin'
TTITLE9=Nobody Knows You When You're Down
TTITLE10=Hi-Heel Sneakers
TTITLE11=Alberta
TTITLE12=Crow Jane
TTITLE13=Sittin' On Top Of The World
TTITLE14=My Babe
TTITLE15=Wee Wee Hours
TTITLE16=Dr John's Boogie
TTITLE17=I've Got My Mojo Working
EXTD=
EXTT0=
EXTT1=
EXTT2=
EXTT3=
EXTT4=
EXTT5=
EXTT6=
EXTT7=
EXTT8=
EXTT9=
EXTT10=
EXTT11=
EXTT12=
EXTT13=
EXTT14=
EXTT15=
EXTT16=
EXTT17=
PLAYORDER=
